<mxfile host="app.diagrams.net" agent="Mozilla/5.0 (Windows NT 10.0; Win64; x64) AppleWebKit/537.36 (KHTML, like Gecko) Chrome/131.0.0.0 Safari/537.36" version="26.0.4">
  <diagram name="第 1 页" id="NGuW2NCNyrPwk5mXRrFH">
    <mxGraphModel dx="1028" dy="653" grid="1" gridSize="10" guides="1" tooltips="1" connect="1" arrows="1" fold="1" page="1" pageScale="1" pageWidth="827" pageHeight="1169" math="0" shadow="0">
      <root>
        <mxCell id="0" />
        <mxCell id="1" parent="0" />
        <mxCell id="4m--KOa5j3XnfrohW2ux-1" value="" style="verticalLabelPosition=bottom;aspect=fixed;html=1;shape=mxgraph.salesforce.iot2;" vertex="1" parent="1">
          <mxGeometry x="10" y="380" width="60" height="60" as="geometry" />
        </mxCell>
        <mxCell id="4m--KOa5j3XnfrohW2ux-2" value="" style="verticalLabelPosition=bottom;aspect=fixed;html=1;shape=mxgraph.salesforce.iot2;" vertex="1" parent="1">
          <mxGeometry x="200" y="380" width="60" height="60" as="geometry" />
        </mxCell>
        <mxCell id="4m--KOa5j3XnfrohW2ux-3" value="" style="shape=flexArrow;endArrow=classic;startArrow=classic;html=1;rounded=0;fillColor=#dae8fc;strokeColor=#6c8ebf;" edge="1" parent="1">
          <mxGeometry width="100" height="100" relative="1" as="geometry">
            <mxPoint x="70" y="409.5" as="sourcePoint" />
            <mxPoint x="200" y="409.5" as="targetPoint" />
          </mxGeometry>
        </mxCell>
        <mxCell id="4m--KOa5j3XnfrohW2ux-4" value="&lt;span style=&quot;font-size: 18px;&quot;&gt;Node A&lt;/span&gt;" style="text;html=1;align=center;verticalAlign=middle;whiteSpace=wrap;rounded=0;" vertex="1" parent="1">
          <mxGeometry x="360" y="470" width="70" height="30" as="geometry" />
        </mxCell>
        <mxCell id="4m--KOa5j3XnfrohW2ux-5" value="&lt;span style=&quot;font-size: 18px;&quot;&gt;Node B&lt;/span&gt;" style="text;html=1;align=center;verticalAlign=middle;whiteSpace=wrap;rounded=0;" vertex="1" parent="1">
          <mxGeometry x="510" y="470" width="70" height="30" as="geometry" />
        </mxCell>
        <mxCell id="4m--KOa5j3XnfrohW2ux-6" value="" style="endArrow=classic;html=1;rounded=0;" edge="1" parent="1">
          <mxGeometry width="50" height="50" relative="1" as="geometry">
            <mxPoint x="400" y="188.87" as="sourcePoint" />
            <mxPoint x="540" y="221.13" as="targetPoint" />
          </mxGeometry>
        </mxCell>
        <mxCell id="4m--KOa5j3XnfrohW2ux-7" value="" style="endArrow=classic;html=1;rounded=0;exitX=0;exitY=0.75;exitDx=0;exitDy=0;" edge="1" parent="1">
          <mxGeometry width="50" height="50" relative="1" as="geometry">
            <mxPoint x="680" y="280" as="sourcePoint" />
            <mxPoint x="400" y="395.24" as="targetPoint" />
          </mxGeometry>
        </mxCell>
        <mxCell id="4m--KOa5j3XnfrohW2ux-8" value="" style="endArrow=none;html=1;rounded=0;" edge="1" parent="1">
          <mxGeometry width="50" height="50" relative="1" as="geometry">
            <mxPoint x="400" y="460" as="sourcePoint" />
            <mxPoint x="400" y="178.87" as="targetPoint" />
          </mxGeometry>
        </mxCell>
        <mxCell id="4m--KOa5j3XnfrohW2ux-9" value="" style="endArrow=none;html=1;rounded=0;" edge="1" parent="1">
          <mxGeometry width="50" height="50" relative="1" as="geometry">
            <mxPoint x="540" y="460" as="sourcePoint" />
            <mxPoint x="540" y="182.07" as="targetPoint" />
            <Array as="points">
              <mxPoint x="540" y="304.33" />
            </Array>
          </mxGeometry>
        </mxCell>
        <mxCell id="4m--KOa5j3XnfrohW2ux-10" value="1" style="html=1;dashed=0;whiteSpace=wrap;shape=mxgraph.dfd.start;fillColor=#0050ef;strokeColor=#001DBC;fontColor=#ffffff;" vertex="1" parent="1">
          <mxGeometry x="460" y="198.87000000000006" width="20" height="9.06" as="geometry" />
        </mxCell>
        <mxCell id="4m--KOa5j3XnfrohW2ux-11" value="3" style="html=1;dashed=0;whiteSpace=wrap;shape=mxgraph.dfd.start;fillColor=#6a00ff;strokeColor=#3700CC;fontColor=#ffffff;" vertex="1" parent="1">
          <mxGeometry x="600" y="300.00000000000006" width="20" height="9.06" as="geometry" />
        </mxCell>
        <mxCell id="4m--KOa5j3XnfrohW2ux-14" value="Update SNR of&amp;nbsp; A2B" style="text;html=1;align=center;verticalAlign=middle;whiteSpace=wrap;rounded=0;fontSize=12;" vertex="1" parent="1">
          <mxGeometry x="545" y="260" width="120" height="30" as="geometry" />
        </mxCell>
        <mxCell id="4m--KOa5j3XnfrohW2ux-16" value="Update:&lt;div&gt;&lt;span style=&quot;background-color: transparent; color: light-dark(rgb(0, 0, 0), rgb(255, 255, 255));&quot;&gt;SNR of A2B&lt;/span&gt;&lt;/div&gt;" style="text;html=1;align=center;verticalAlign=middle;whiteSpace=wrap;rounded=0;fontSize=12;" vertex="1" parent="1">
          <mxGeometry x="280" y="375.86" width="110" height="30" as="geometry" />
        </mxCell>
        <mxCell id="4m--KOa5j3XnfrohW2ux-18" value="Transmit Msg" style="text;html=1;align=center;verticalAlign=middle;whiteSpace=wrap;rounded=0;fontSize=12;" vertex="1" parent="1">
          <mxGeometry x="290" y="177.93" width="90" height="30" as="geometry" />
        </mxCell>
        <mxCell id="4m--KOa5j3XnfrohW2ux-19" value="" style="endArrow=none;html=1;rounded=0;" edge="1" parent="1">
          <mxGeometry width="50" height="50" relative="1" as="geometry">
            <mxPoint x="680" y="460" as="sourcePoint" />
            <mxPoint x="680" y="177.93" as="targetPoint" />
          </mxGeometry>
        </mxCell>
        <mxCell id="4m--KOa5j3XnfrohW2ux-20" value="" style="endArrow=classic;html=1;rounded=0;" edge="1" parent="1">
          <mxGeometry width="50" height="50" relative="1" as="geometry">
            <mxPoint x="540" y="230" as="sourcePoint" />
            <mxPoint x="680" y="262.26" as="targetPoint" />
          </mxGeometry>
        </mxCell>
        <mxCell id="4m--KOa5j3XnfrohW2ux-21" value="&lt;span style=&quot;font-size: 18px;&quot;&gt;Network&lt;/span&gt;&lt;div&gt;&lt;span style=&quot;font-size: 18px;&quot;&gt;Gate&lt;/span&gt;&lt;/div&gt;" style="text;html=1;align=center;verticalAlign=middle;whiteSpace=wrap;rounded=0;" vertex="1" parent="1">
          <mxGeometry x="640" y="470" width="70" height="30" as="geometry" />
        </mxCell>
        <mxCell id="4m--KOa5j3XnfrohW2ux-22" value="" style="endArrow=classic;html=1;rounded=0;" edge="1" parent="1">
          <mxGeometry width="50" height="50" relative="1" as="geometry">
            <mxPoint x="680" y="318.12" as="sourcePoint" />
            <mxPoint x="540" y="375.86" as="targetPoint" />
          </mxGeometry>
        </mxCell>
        <mxCell id="4m--KOa5j3XnfrohW2ux-23" value="&lt;div&gt;&lt;span style=&quot;background-color: transparent; color: light-dark(rgb(0, 0, 0), rgb(255, 255, 255));&quot;&gt;Transmit Msg with&lt;/span&gt;&lt;/div&gt;&lt;div&gt;&lt;span style=&quot;background-color: transparent; color: light-dark(rgb(0, 0, 0), rgb(255, 255, 255));&quot;&gt;SNR of A2B &amp;amp; E_B&lt;/span&gt;&lt;/div&gt;" style="text;html=1;align=center;verticalAlign=middle;whiteSpace=wrap;rounded=0;fontSize=12;" vertex="1" parent="1">
          <mxGeometry x="550" y="198.87" width="110" height="30" as="geometry" />
        </mxCell>
        <mxCell id="4m--KOa5j3XnfrohW2ux-24" value="2" style="html=1;dashed=0;whiteSpace=wrap;shape=mxgraph.dfd.start;fillColor=#d80073;strokeColor=#A50040;fontColor=#ffffff;" vertex="1" parent="1">
          <mxGeometry x="600" y="240.00000000000006" width="20" height="9.06" as="geometry" />
        </mxCell>
        <mxCell id="4m--KOa5j3XnfrohW2ux-25" value="4" style="html=1;dashed=0;whiteSpace=wrap;shape=mxgraph.dfd.start;fillColor=#60a917;strokeColor=#2D7600;fontColor=#ffffff;" vertex="1" parent="1">
          <mxGeometry x="600" y="340.00000000000006" width="20" height="9.06" as="geometry" />
        </mxCell>
        <mxCell id="4m--KOa5j3XnfrohW2ux-26" value="&lt;div&gt;Calculate SNR of B2Gate&lt;/div&gt;ACK: SNR of B2Gate" style="text;html=1;align=center;verticalAlign=middle;whiteSpace=wrap;rounded=0;fontSize=12;" vertex="1" parent="1">
          <mxGeometry x="680" y="260" width="140" height="30" as="geometry" />
        </mxCell>
        <mxCell id="4m--KOa5j3XnfrohW2ux-31" value="&lt;div&gt;Calculate SNR of A2B&lt;/div&gt;" style="text;html=1;align=center;verticalAlign=middle;whiteSpace=wrap;rounded=0;fontSize=12;" vertex="1" parent="1">
          <mxGeometry x="545" y="177.93" width="125" height="30" as="geometry" />
        </mxCell>
        <mxCell id="4m--KOa5j3XnfrohW2ux-35" value="Broadcasting:&lt;div&gt;SNR of B2G &amp;amp; E_B&lt;/div&gt;" style="text;html=1;align=center;verticalAlign=middle;whiteSpace=wrap;rounded=0;fontSize=12;" vertex="1" parent="1">
          <mxGeometry x="680" y="309.06" width="120" height="30" as="geometry" />
        </mxCell>
        <mxCell id="4m--KOa5j3XnfrohW2ux-36" value="" style="endArrow=classic;html=1;rounded=0;" edge="1" parent="1">
          <mxGeometry width="50" height="50" relative="1" as="geometry">
            <mxPoint x="680" y="328.12" as="sourcePoint" />
            <mxPoint x="400" y="440" as="targetPoint" />
          </mxGeometry>
        </mxCell>
        <mxCell id="4m--KOa5j3XnfrohW2ux-37" value="4" style="html=1;dashed=0;whiteSpace=wrap;shape=mxgraph.dfd.start;fillColor=#60a917;strokeColor=#2D7600;fontColor=#ffffff;" vertex="1" parent="1">
          <mxGeometry x="600" y="349.06000000000006" width="20" height="9.06" as="geometry" />
        </mxCell>
        <mxCell id="4m--KOa5j3XnfrohW2ux-38" value="" style="verticalLabelPosition=bottom;aspect=fixed;html=1;shape=mxgraph.salesforce.communications2;" vertex="1" parent="1">
          <mxGeometry x="110" y="177.93" width="60" height="60" as="geometry" />
        </mxCell>
        <mxCell id="4m--KOa5j3XnfrohW2ux-39" value="" style="shape=flexArrow;endArrow=classic;startArrow=classic;html=1;rounded=0;startWidth=10.285714285714286;startSize=5.714285714285714;endWidth=10.285714285714286;endSize=5.714285714285714;fillColor=#d5e8d4;strokeColor=#82b366;" edge="1" parent="1">
          <mxGeometry width="100" height="100" relative="1" as="geometry">
            <mxPoint x="50" y="370" as="sourcePoint" />
            <mxPoint x="110" y="240" as="targetPoint" />
          </mxGeometry>
        </mxCell>
        <mxCell id="4m--KOa5j3XnfrohW2ux-40" value="" style="shape=flexArrow;endArrow=classic;startArrow=classic;html=1;rounded=0;startWidth=10.285714285714286;startSize=5.714285714285714;endWidth=10.285714285714286;endSize=5.714285714285714;fillColor=#ffe6cc;strokeColor=#d79b00;" edge="1" parent="1">
          <mxGeometry width="100" height="100" relative="1" as="geometry">
            <mxPoint x="220" y="370" as="sourcePoint" />
            <mxPoint x="170" y="240" as="targetPoint" />
          </mxGeometry>
        </mxCell>
        <mxCell id="4m--KOa5j3XnfrohW2ux-41" value="" style="shape=flexArrow;endArrow=classic;startArrow=classic;html=1;rounded=0;startWidth=2.7419354838709675;startSize=1.912;endWidth=2.7419354838709675;endSize=1.912;fillColor=#dae8fc;strokeColor=#6c8ebf;width=3.04;" edge="1" parent="1">
          <mxGeometry width="100" height="100" relative="1" as="geometry">
            <mxPoint x="10" y="500" as="sourcePoint" />
            <mxPoint x="40" y="500" as="targetPoint" />
          </mxGeometry>
        </mxCell>
        <mxCell id="4m--KOa5j3XnfrohW2ux-42" value="" style="shape=flexArrow;endArrow=classic;startArrow=classic;html=1;rounded=0;startWidth=2.7419354838709675;startSize=1.912;endWidth=2.7419354838709675;endSize=1.912;fillColor=#d5e8d4;strokeColor=#82b366;width=3.04;" edge="1" parent="1">
          <mxGeometry width="100" height="100" relative="1" as="geometry">
            <mxPoint x="10" y="510" as="sourcePoint" />
            <mxPoint x="40" y="510" as="targetPoint" />
          </mxGeometry>
        </mxCell>
        <mxCell id="4m--KOa5j3XnfrohW2ux-43" value="" style="shape=flexArrow;endArrow=classic;startArrow=classic;html=1;rounded=0;startWidth=2.7419354838709675;startSize=1.912;endWidth=2.7419354838709675;endSize=1.912;fillColor=#ffe6cc;strokeColor=#d79b00;width=3.04;" edge="1" parent="1">
          <mxGeometry width="100" height="100" relative="1" as="geometry">
            <mxPoint x="10" y="520" as="sourcePoint" />
            <mxPoint x="40" y="520" as="targetPoint" />
          </mxGeometry>
        </mxCell>
        <mxCell id="4m--KOa5j3XnfrohW2ux-45" value="&lt;span style=&quot;font-size: 10px;&quot;&gt;freq1&lt;/span&gt;" style="text;html=1;align=center;verticalAlign=middle;whiteSpace=wrap;rounded=0;" vertex="1" parent="1">
          <mxGeometry x="50" y="490" width="20" height="10" as="geometry" />
        </mxCell>
        <mxCell id="4m--KOa5j3XnfrohW2ux-46" value="&lt;span style=&quot;font-size: 10px;&quot;&gt;freq2&lt;/span&gt;" style="text;html=1;align=center;verticalAlign=middle;whiteSpace=wrap;rounded=0;" vertex="1" parent="1">
          <mxGeometry x="50" y="500" width="20" height="10" as="geometry" />
        </mxCell>
        <mxCell id="4m--KOa5j3XnfrohW2ux-47" value="&lt;span style=&quot;font-size: 10px;&quot;&gt;freq3&lt;/span&gt;" style="text;html=1;align=center;verticalAlign=middle;whiteSpace=wrap;rounded=0;" vertex="1" parent="1">
          <mxGeometry x="50" y="510" width="20" height="10" as="geometry" />
        </mxCell>
        <mxCell id="4m--KOa5j3XnfrohW2ux-49" value="&lt;span style=&quot;font-size: 18px;&quot;&gt;Node A&lt;/span&gt;" style="text;html=1;align=center;verticalAlign=middle;whiteSpace=wrap;rounded=0;" vertex="1" parent="1">
          <mxGeometry x="5" y="440" width="70" height="30" as="geometry" />
        </mxCell>
        <mxCell id="4m--KOa5j3XnfrohW2ux-50" value="&lt;span style=&quot;font-size: 18px;&quot;&gt;Node B&lt;/span&gt;" style="text;html=1;align=center;verticalAlign=middle;whiteSpace=wrap;rounded=0;" vertex="1" parent="1">
          <mxGeometry x="195" y="440" width="70" height="30" as="geometry" />
        </mxCell>
        <mxCell id="4m--KOa5j3XnfrohW2ux-51" value="&lt;span style=&quot;font-size: 18px;&quot;&gt;Network&amp;nbsp;&lt;/span&gt;&lt;span style=&quot;font-size: 18px; background-color: transparent; color: light-dark(rgb(0, 0, 0), rgb(255, 255, 255));&quot;&gt;Gate&lt;/span&gt;" style="text;html=1;align=center;verticalAlign=middle;whiteSpace=wrap;rounded=0;" vertex="1" parent="1">
          <mxGeometry x="75" y="140" width="130" height="30" as="geometry" />
        </mxCell>
        <mxCell id="4m--KOa5j3XnfrohW2ux-52" value="&lt;span style=&quot;font-size: 18px;&quot;&gt;Network Layer&lt;/span&gt;" style="text;html=1;align=center;verticalAlign=middle;whiteSpace=wrap;rounded=0;" vertex="1" parent="1">
          <mxGeometry x="490" y="140" width="130" height="30" as="geometry" />
        </mxCell>
        <mxCell id="4m--KOa5j3XnfrohW2ux-53" value="1" style="html=1;dashed=0;whiteSpace=wrap;shape=mxgraph.dfd.start;fillColor=#0050ef;strokeColor=#001DBC;fontColor=#ffffff;" vertex="1" parent="1">
          <mxGeometry x="130" y="386.33000000000004" width="20" height="9.06" as="geometry" />
        </mxCell>
        <mxCell id="4m--KOa5j3XnfrohW2ux-54" value="2" style="html=1;dashed=0;whiteSpace=wrap;shape=mxgraph.dfd.start;fillColor=#d80073;strokeColor=#A50040;fontColor=#ffffff;" vertex="1" parent="1">
          <mxGeometry x="205" y="300.00000000000006" width="20" height="9.06" as="geometry" />
        </mxCell>
        <mxCell id="4m--KOa5j3XnfrohW2ux-55" value="3" style="html=1;dashed=0;whiteSpace=wrap;shape=mxgraph.dfd.start;fillColor=#6a00ff;strokeColor=#3700CC;fontColor=#ffffff;" vertex="1" parent="1">
          <mxGeometry x="100" y="300.00000000000006" width="20" height="9.06" as="geometry" />
        </mxCell>
        <mxCell id="4m--KOa5j3XnfrohW2ux-57" value="4" style="html=1;dashed=0;whiteSpace=wrap;shape=mxgraph.dfd.start;fillColor=#60a917;strokeColor=#2D7600;fontColor=#ffffff;" vertex="1" parent="1">
          <mxGeometry x="90" y="319.5300000000001" width="20" height="9.06" as="geometry" />
        </mxCell>
        <mxCell id="4m--KOa5j3XnfrohW2ux-58" value="4" style="html=1;dashed=0;whiteSpace=wrap;shape=mxgraph.dfd.start;fillColor=#60a917;strokeColor=#2D7600;fontColor=#ffffff;" vertex="1" parent="1">
          <mxGeometry x="170" y="319.5300000000001" width="20" height="9.06" as="geometry" />
        </mxCell>
        <mxCell id="4m--KOa5j3XnfrohW2ux-59" value="3" style="html=1;dashed=0;whiteSpace=wrap;shape=mxgraph.dfd.start;fillColor=#6a00ff;strokeColor=#3700CC;fontColor=#ffffff;" vertex="1" parent="1">
          <mxGeometry x="95" y="496.79" width="20" height="9.06" as="geometry" />
        </mxCell>
        <mxCell id="4m--KOa5j3XnfrohW2ux-60" value="2" style="html=1;dashed=0;whiteSpace=wrap;shape=mxgraph.dfd.start;fillColor=#d80073;strokeColor=#A50040;fontColor=#ffffff;" vertex="1" parent="1">
          <mxGeometry x="95" y="482.26000000000005" width="20" height="9.06" as="geometry" />
        </mxCell>
        <mxCell id="4m--KOa5j3XnfrohW2ux-61" value="4" style="html=1;dashed=0;whiteSpace=wrap;shape=mxgraph.dfd.start;fillColor=#60a917;strokeColor=#2D7600;fontColor=#ffffff;" vertex="1" parent="1">
          <mxGeometry x="95" y="510.94" width="20" height="9.06" as="geometry" />
        </mxCell>
        <mxCell id="4m--KOa5j3XnfrohW2ux-62" value="&lt;span style=&quot;font-size: 10px;&quot;&gt;1. Data Msg&lt;/span&gt;" style="text;html=1;align=left;verticalAlign=middle;whiteSpace=wrap;rounded=0;" vertex="1" parent="1">
          <mxGeometry x="120" y="469.06" width="70" height="10" as="geometry" />
        </mxCell>
        <mxCell id="4m--KOa5j3XnfrohW2ux-63" value="&lt;span style=&quot;font-size: 10px;&quot;&gt;2. Repeater Msg&lt;/span&gt;" style="text;html=1;align=left;verticalAlign=middle;whiteSpace=wrap;rounded=0;" vertex="1" parent="1">
          <mxGeometry x="120" y="482.26" width="80" height="10" as="geometry" />
        </mxCell>
        <mxCell id="4m--KOa5j3XnfrohW2ux-64" value="&lt;span style=&quot;font-size: 10px;&quot;&gt;3. ACK Msg&lt;/span&gt;" style="text;html=1;align=left;verticalAlign=middle;whiteSpace=wrap;rounded=0;" vertex="1" parent="1">
          <mxGeometry x="120" y="496.32" width="100" height="10" as="geometry" />
        </mxCell>
        <mxCell id="4m--KOa5j3XnfrohW2ux-65" value="1" style="html=1;dashed=0;whiteSpace=wrap;shape=mxgraph.dfd.start;fillColor=#0050ef;strokeColor=#001DBC;fontColor=#ffffff;" vertex="1" parent="1">
          <mxGeometry x="95" y="470" width="20" height="9.06" as="geometry" />
        </mxCell>
        <mxCell id="4m--KOa5j3XnfrohW2ux-66" value="&lt;span style=&quot;font-size: 10px;&quot;&gt;4. Broadcasting Msg&lt;/span&gt;" style="text;html=1;align=left;verticalAlign=middle;whiteSpace=wrap;rounded=0;" vertex="1" parent="1">
          <mxGeometry x="120" y="510.94" width="100" height="10" as="geometry" />
        </mxCell>
        <mxCell id="4m--KOa5j3XnfrohW2ux-67" value="Update:&lt;div&gt;&lt;span style=&quot;background-color: transparent; color: light-dark(rgb(0, 0, 0), rgb(255, 255, 255));&quot;&gt;SNR of B2G &amp;amp; E_B&lt;/span&gt;&lt;/div&gt;" style="text;html=1;align=center;verticalAlign=middle;whiteSpace=wrap;rounded=0;fontSize=12;" vertex="1" parent="1">
          <mxGeometry x="280" y="420" width="110" height="30" as="geometry" />
        </mxCell>
      </root>
    </mxGraphModel>
  </diagram>
</mxfile>
